<svg xmlns="http://www.w3.org/2000/svg" width="1200" height="800" viewBox="0 0 1200 800">
  <defs>
    <linearGradient id="bg" x1="0" y1="0" x2="1" y2="1">
      <stop offset="0" stop-color="#0f172a"/>
      <stop offset="1" stop-color="#1f2937"/>
    </linearGradient>
    <linearGradient id="shine" x1="0" y1="0" x2="1" y2="0">
      <stop offset="0" stop-color="#ffffff" stop-opacity="0.10"/>
      <stop offset="0.5" stop-color="#ffffff" stop-opacity="0.04"/>
      <stop offset="1" stop-color="#ffffff" stop-opacity="0.10"/>
    </linearGradient>
  </defs>
  <rect width="1200" height="800" rx="64" fill="url(#bg)"/>
  <rect x="70" y="70" width="1060" height="660" rx="44" fill="#ffffff" opacity="0.06"/>
  <path d="M290 480c85-95 205-135 345-135h95c95 0 175 38 245 110l35 37c16 17 25 39 25 62v6H240v-12c0-26 11-50 31-68l18-0z" fill="url(#shine)"/>
  <circle cx="415" cy="610" r="42" fill="#e5e7eb" opacity="0.9"/>
  <circle cx="825" cy="610" r="42" fill="#e5e7eb" opacity="0.9"/>
  <text x="95" y="165" fill="#ffffff" font-size="54" font-family="system-ui, -apple-system, Segoe UI, Roboto, Arial" font-weight="800">Sample Car 18</text>
  <text x="95" y="220" fill="#e5e7eb" font-size="26" font-family="system-ui, -apple-system, Segoe UI, Roboto, Arial">Local placeholder • No external images</text>
</svg>


